<mxfile host="app.diagrams.net" agent="Mozilla/5.0 (X11; Linux x86_64; rv:135.0) Gecko/20100101 Firefox/135.0" version="26.0.16">
  <diagram name="Page-1" id="RvLJMDJxxB9WrQDahHjU">
    <mxGraphModel dx="584" dy="898" grid="1" gridSize="10" guides="1" tooltips="1" connect="1" arrows="1" fold="1" page="1" pageScale="1" pageWidth="850" pageHeight="1100" math="0" shadow="0">
      <root>
        <mxCell id="0" />
        <mxCell id="1" parent="0" />
        <mxCell id="WDB6JOf-iWaTPl9ExDCZ-1" style="edgeStyle=none;rounded=1;orthogonalLoop=1;jettySize=auto;html=1;exitX=0.5;exitY=1;exitDx=0;exitDy=0;entryX=0.5;entryY=0;entryDx=0;entryDy=0;fontFamily=CMU Sans Serif;fontSize=36;endArrow=none;endFill=0;strokeWidth=6;fillColor=#f8cecc;strokeColor=#b85450;" edge="1" parent="1" source="WDB6JOf-iWaTPl9ExDCZ-2" target="WDB6JOf-iWaTPl9ExDCZ-25">
          <mxGeometry relative="1" as="geometry" />
        </mxCell>
        <mxCell id="WDB6JOf-iWaTPl9ExDCZ-2" value="" style="rounded=1;whiteSpace=wrap;html=1;strokeWidth=3;shadow=1;sketch=0;fillColor=none;strokeColor=#b85450;fontFamily=CMU Sans Serif;fontColor=#1A1A1A;" vertex="1" parent="1">
          <mxGeometry x="1148" y="70" width="260" height="80" as="geometry" />
        </mxCell>
        <mxCell id="WDB6JOf-iWaTPl9ExDCZ-3" style="edgeStyle=none;rounded=1;orthogonalLoop=1;jettySize=auto;html=1;exitX=0.5;exitY=1;exitDx=0;exitDy=0;entryX=0.5;entryY=0;entryDx=0;entryDy=0;fontFamily=CMU Sans Serif;fontSize=36;endArrow=none;endFill=0;strokeWidth=6;fillColor=#dae8fc;strokeColor=#6c8ebf;" edge="1" parent="1" source="WDB6JOf-iWaTPl9ExDCZ-25" target="WDB6JOf-iWaTPl9ExDCZ-10">
          <mxGeometry relative="1" as="geometry" />
        </mxCell>
        <mxCell id="WDB6JOf-iWaTPl9ExDCZ-4" style="edgeStyle=none;rounded=1;orthogonalLoop=1;jettySize=auto;html=1;exitX=0.5;exitY=1;exitDx=0;exitDy=0;entryX=0.5;entryY=0;entryDx=0;entryDy=0;fontFamily=CMU Sans Serif;fontSize=36;endArrow=none;endFill=0;strokeWidth=6;fillColor=#dae8fc;strokeColor=#6c8ebf;" edge="1" parent="1" source="WDB6JOf-iWaTPl9ExDCZ-25" target="WDB6JOf-iWaTPl9ExDCZ-9">
          <mxGeometry relative="1" as="geometry" />
        </mxCell>
        <mxCell id="WDB6JOf-iWaTPl9ExDCZ-5" value="" style="rounded=1;whiteSpace=wrap;html=1;strokeWidth=3;shadow=1;sketch=0;fillColor=none;strokeColor=#82b366;fontFamily=CMU Sans Serif;fontColor=#1A1A1A;" vertex="1" parent="1">
          <mxGeometry x="1288" y="310" width="130" height="50" as="geometry" />
        </mxCell>
        <mxCell id="WDB6JOf-iWaTPl9ExDCZ-6" value="" style="rounded=1;whiteSpace=wrap;html=1;strokeWidth=3;shadow=1;sketch=0;fillColor=none;strokeColor=#82b366;fontFamily=CMU Sans Serif;fontColor=#1A1A1A;" vertex="1" parent="1">
          <mxGeometry x="1488" y="310" width="130" height="50" as="geometry" />
        </mxCell>
        <mxCell id="WDB6JOf-iWaTPl9ExDCZ-7" style="rounded=0;orthogonalLoop=1;jettySize=auto;html=1;exitX=1;exitY=0.5;exitDx=0;exitDy=0;fontFamily=CMU Sans Serif;fontSize=36;dashed=1;endArrow=none;endFill=0;dashPattern=1 1;strokeWidth=6;" edge="1" parent="1">
          <mxGeometry relative="1" as="geometry">
            <mxPoint x="1426" y="334.3299999999999" as="sourcePoint" />
            <mxPoint x="1486" y="333.9999999999998" as="targetPoint" />
          </mxGeometry>
        </mxCell>
        <mxCell id="WDB6JOf-iWaTPl9ExDCZ-8" style="edgeStyle=none;rounded=1;orthogonalLoop=1;jettySize=auto;html=1;entryX=0;entryY=0.5;entryDx=0;entryDy=0;fontFamily=CMU Sans Serif;fontSize=36;endArrow=none;endFill=0;strokeWidth=6;" edge="1" parent="1" source="WDB6JOf-iWaTPl9ExDCZ-6" target="WDB6JOf-iWaTPl9ExDCZ-6">
          <mxGeometry relative="1" as="geometry" />
        </mxCell>
        <mxCell id="WDB6JOf-iWaTPl9ExDCZ-9" value="" style="rounded=1;whiteSpace=wrap;html=1;strokeWidth=3;shadow=1;sketch=0;fillColor=none;strokeColor=#82B366;fontFamily=CMU Sans Serif;fontColor=#1A1A1A;" vertex="1" parent="1">
          <mxGeometry x="943" y="310" width="130" height="50" as="geometry" />
        </mxCell>
        <mxCell id="WDB6JOf-iWaTPl9ExDCZ-10" value="" style="rounded=1;whiteSpace=wrap;html=1;strokeWidth=3;shadow=1;sketch=0;fillColor=none;strokeColor=#82b366;fontFamily=CMU Sans Serif;fontColor=#1A1A1A;" vertex="1" parent="1">
          <mxGeometry x="1143" y="310" width="130" height="50" as="geometry" />
        </mxCell>
        <mxCell id="WDB6JOf-iWaTPl9ExDCZ-11" style="rounded=0;orthogonalLoop=1;jettySize=auto;html=1;exitX=1;exitY=0.5;exitDx=0;exitDy=0;fontFamily=CMU Sans Serif;fontSize=36;dashed=1;endArrow=none;endFill=0;dashPattern=1 1;strokeWidth=6;" edge="1" parent="1">
          <mxGeometry relative="1" as="geometry">
            <mxPoint x="1081" y="334.3299999999999" as="sourcePoint" />
            <mxPoint x="1141" y="333.9999999999998" as="targetPoint" />
          </mxGeometry>
        </mxCell>
        <mxCell id="WDB6JOf-iWaTPl9ExDCZ-12" style="edgeStyle=none;rounded=1;orthogonalLoop=1;jettySize=auto;html=1;entryX=0;entryY=0.5;entryDx=0;entryDy=0;fontFamily=CMU Sans Serif;fontSize=36;endArrow=none;endFill=0;strokeWidth=6;" edge="1" parent="1" source="WDB6JOf-iWaTPl9ExDCZ-10" target="WDB6JOf-iWaTPl9ExDCZ-10">
          <mxGeometry relative="1" as="geometry" />
        </mxCell>
        <mxCell id="WDB6JOf-iWaTPl9ExDCZ-13" value="&lt;font style=&quot;font-size: 28px&quot;&gt;arm&lt;/font&gt;" style="rounded=1;whiteSpace=wrap;html=1;shadow=1;sketch=0;fontFamily=CMU Sans Serif;fontSize=36;strokeWidth=3;fillColor=none;strokeColor=#d6b656;fontColor=#1A1A1A;" vertex="1" parent="1">
          <mxGeometry x="1048" y="350" width="50" height="30" as="geometry" />
        </mxCell>
        <mxCell id="WDB6JOf-iWaTPl9ExDCZ-14" value="&lt;font style=&quot;font-size: 28px&quot;&gt;x86&lt;/font&gt;" style="rounded=1;whiteSpace=wrap;html=1;shadow=1;sketch=0;fontFamily=CMU Sans Serif;fontSize=36;strokeWidth=3;fillColor=none;strokeColor=#d6b656;fontColor=#1A1A1A;" vertex="1" parent="1">
          <mxGeometry x="1253" y="350" width="50" height="30" as="geometry" />
        </mxCell>
        <mxCell id="WDB6JOf-iWaTPl9ExDCZ-15" value="&lt;font style=&quot;font-size: 28px&quot;&gt;arm&lt;/font&gt;" style="rounded=1;whiteSpace=wrap;html=1;shadow=1;sketch=0;fontFamily=CMU Sans Serif;fontSize=36;strokeWidth=3;fillColor=none;strokeColor=#d6b656;fontColor=#1A1A1A;" vertex="1" parent="1">
          <mxGeometry x="1579" y="350" width="50" height="30" as="geometry" />
        </mxCell>
        <mxCell id="WDB6JOf-iWaTPl9ExDCZ-16" value="&lt;b style=&quot;&quot;&gt;&lt;font style=&quot;font-size: 36px&quot;&gt;Root Orchestrator&lt;/font&gt;&lt;/b&gt;" style="text;html=1;strokeColor=none;fillColor=none;align=center;verticalAlign=middle;whiteSpace=wrap;rounded=0;sketch=0;fontColor=#1A1A1A;fontFamily=CMU Sans Serif;" vertex="1" parent="1">
          <mxGeometry x="1181" y="96" width="195" height="30" as="geometry" />
        </mxCell>
        <mxCell id="WDB6JOf-iWaTPl9ExDCZ-17" style="edgeStyle=orthogonalEdgeStyle;rounded=0;orthogonalLoop=1;jettySize=auto;html=1;exitX=0.5;exitY=1;exitDx=0;exitDy=0;fontFamily=CMU Sans Serif;fontColor=#FFFFFF;" edge="1" parent="1">
          <mxGeometry relative="1" as="geometry">
            <mxPoint x="1452" y="248" as="sourcePoint" />
            <mxPoint x="1452" y="248" as="targetPoint" />
          </mxGeometry>
        </mxCell>
        <mxCell id="WDB6JOf-iWaTPl9ExDCZ-18" value="&lt;b style=&quot;&quot;&gt;&lt;font style=&quot;font-size: 36px&quot;&gt;Worker&lt;br&gt;&lt;/font&gt;&lt;/b&gt;" style="text;html=1;strokeColor=none;fillColor=none;align=center;verticalAlign=middle;whiteSpace=wrap;rounded=0;sketch=0;fontColor=#1A1A1A;fontFamily=CMU Sans Serif;" vertex="1" parent="1">
          <mxGeometry x="913" y="323.34000000000003" width="195" height="30" as="geometry" />
        </mxCell>
        <mxCell id="WDB6JOf-iWaTPl9ExDCZ-19" value="&lt;b style=&quot;&quot;&gt;&lt;font style=&quot;font-size: 36px&quot;&gt;Worker&lt;br&gt;&lt;/font&gt;&lt;/b&gt;" style="text;html=1;strokeColor=none;fillColor=none;align=center;verticalAlign=middle;whiteSpace=wrap;rounded=0;sketch=0;fontColor=#1A1A1A;fontFamily=CMU Sans Serif;" vertex="1" parent="1">
          <mxGeometry x="1110.5" y="323.34000000000003" width="195" height="30" as="geometry" />
        </mxCell>
        <mxCell id="WDB6JOf-iWaTPl9ExDCZ-20" value="&lt;b style=&quot;&quot;&gt;&lt;font style=&quot;font-size: 36px&quot;&gt;Worker&lt;br&gt;&lt;/font&gt;&lt;/b&gt;" style="text;html=1;strokeColor=none;fillColor=none;align=center;verticalAlign=middle;whiteSpace=wrap;rounded=0;sketch=0;fontColor=#1A1A1A;fontFamily=CMU Sans Serif;" vertex="1" parent="1">
          <mxGeometry x="1255.5" y="323.34000000000003" width="195" height="30" as="geometry" />
        </mxCell>
        <mxCell id="WDB6JOf-iWaTPl9ExDCZ-21" value="&lt;b style=&quot;&quot;&gt;&lt;font style=&quot;font-size: 36px&quot;&gt;Worker&lt;br&gt;&lt;/font&gt;&lt;/b&gt;" style="text;html=1;strokeColor=none;fillColor=none;align=center;verticalAlign=middle;whiteSpace=wrap;rounded=0;sketch=0;fontColor=#1A1A1A;fontFamily=CMU Sans Serif;" vertex="1" parent="1">
          <mxGeometry x="1455.5" y="323.34000000000003" width="195" height="30" as="geometry" />
        </mxCell>
        <mxCell id="WDB6JOf-iWaTPl9ExDCZ-22" style="edgeStyle=none;rounded=1;orthogonalLoop=1;jettySize=auto;html=1;entryX=0.5;entryY=0;entryDx=0;entryDy=0;fontFamily=CMU Sans Serif;fontSize=36;endArrow=none;endFill=0;strokeWidth=6;fillColor=#dae8fc;strokeColor=#6c8ebf;exitX=0.5;exitY=1;exitDx=0;exitDy=0;" edge="1" parent="1" source="WDB6JOf-iWaTPl9ExDCZ-28" target="WDB6JOf-iWaTPl9ExDCZ-5">
          <mxGeometry relative="1" as="geometry">
            <mxPoint x="1440" y="280" as="sourcePoint" />
            <mxPoint x="1533" y="460" as="targetPoint" />
          </mxGeometry>
        </mxCell>
        <mxCell id="WDB6JOf-iWaTPl9ExDCZ-23" style="edgeStyle=none;rounded=1;orthogonalLoop=1;jettySize=auto;html=1;entryX=0.5;entryY=0;entryDx=0;entryDy=0;fontFamily=CMU Sans Serif;fontSize=36;endArrow=none;endFill=0;strokeWidth=6;fillColor=#dae8fc;strokeColor=#6c8ebf;exitX=0.5;exitY=1;exitDx=0;exitDy=0;" edge="1" parent="1" source="WDB6JOf-iWaTPl9ExDCZ-28" target="WDB6JOf-iWaTPl9ExDCZ-6">
          <mxGeometry relative="1" as="geometry">
            <mxPoint x="1440" y="280" as="sourcePoint" />
            <mxPoint x="1363" y="320" as="targetPoint" />
          </mxGeometry>
        </mxCell>
        <mxCell id="WDB6JOf-iWaTPl9ExDCZ-24" value="" style="group" vertex="1" connectable="0" parent="1">
          <mxGeometry x="990" y="190" width="260" height="80" as="geometry" />
        </mxCell>
        <mxCell id="WDB6JOf-iWaTPl9ExDCZ-25" value="" style="rounded=1;whiteSpace=wrap;html=1;strokeWidth=3;shadow=1;sketch=0;fillColor=none;strokeColor=#6c8ebf;fontFamily=CMU Sans Serif;fontColor=#1A1A1A;" vertex="1" parent="WDB6JOf-iWaTPl9ExDCZ-24">
          <mxGeometry width="260" height="80" as="geometry" />
        </mxCell>
        <mxCell id="WDB6JOf-iWaTPl9ExDCZ-26" value="&lt;b style=&quot;&quot;&gt;&lt;font style=&quot;font-size: 36px&quot;&gt;Cluster Orchestrator&lt;/font&gt;&lt;/b&gt;" style="text;html=1;strokeColor=none;fillColor=none;align=center;verticalAlign=middle;whiteSpace=wrap;rounded=0;sketch=0;fontColor=#1A1A1A;fontFamily=CMU Sans Serif;" vertex="1" parent="WDB6JOf-iWaTPl9ExDCZ-24">
          <mxGeometry x="31" y="26" width="195" height="30" as="geometry" />
        </mxCell>
        <mxCell id="WDB6JOf-iWaTPl9ExDCZ-27" value="" style="group" vertex="1" connectable="0" parent="1">
          <mxGeometry x="1320" y="190" width="340" height="200" as="geometry" />
        </mxCell>
        <mxCell id="WDB6JOf-iWaTPl9ExDCZ-28" value="" style="rounded=1;whiteSpace=wrap;html=1;strokeWidth=3;shadow=1;sketch=0;fillColor=none;strokeColor=#6c8ebf;fontFamily=CMU Sans Serif;fontColor=#1A1A1A;" vertex="1" parent="WDB6JOf-iWaTPl9ExDCZ-27">
          <mxGeometry width="260" height="80" as="geometry" />
        </mxCell>
        <mxCell id="WDB6JOf-iWaTPl9ExDCZ-29" value="&lt;b style=&quot;&quot;&gt;&lt;font style=&quot;font-size: 36px&quot;&gt;Cluster Orchestrator&lt;/font&gt;&lt;/b&gt;" style="text;html=1;strokeColor=none;fillColor=none;align=center;verticalAlign=middle;whiteSpace=wrap;rounded=0;sketch=0;fontColor=#1A1A1A;fontFamily=CMU Sans Serif;" vertex="1" parent="WDB6JOf-iWaTPl9ExDCZ-27">
          <mxGeometry x="31" y="26" width="195" height="30" as="geometry" />
        </mxCell>
        <mxCell id="WDB6JOf-iWaTPl9ExDCZ-30" value="" style="rounded=0;whiteSpace=wrap;html=1;strokeColor=none;fillColor=#808080;fontColor=#333333;opacity=80;sketch=1;curveFitting=1;jiggle=2;" vertex="1" parent="WDB6JOf-iWaTPl9ExDCZ-27">
          <mxGeometry x="-380" y="110" width="720" height="90" as="geometry" />
        </mxCell>
        <mxCell id="WDB6JOf-iWaTPl9ExDCZ-33" value="" style="rounded=0;whiteSpace=wrap;html=1;strokeColor=none;fillColor=#808080;fontColor=#333333;opacity=80;sketch=1;curveFitting=1;jiggle=2;" vertex="1" parent="WDB6JOf-iWaTPl9ExDCZ-27">
          <mxGeometry x="-40" y="-20" width="380" height="130" as="geometry" />
        </mxCell>
        <mxCell id="WDB6JOf-iWaTPl9ExDCZ-31" style="edgeStyle=none;rounded=1;orthogonalLoop=1;jettySize=auto;html=1;fontFamily=CMU Sans Serif;fontSize=36;endArrow=none;endFill=0;strokeWidth=6;fillColor=#f8cecc;strokeColor=#b85450;entryX=0.5;entryY=1;entryDx=0;entryDy=0;exitX=0.5;exitY=0;exitDx=0;exitDy=0;" edge="1" parent="1" source="WDB6JOf-iWaTPl9ExDCZ-28" target="WDB6JOf-iWaTPl9ExDCZ-2">
          <mxGeometry relative="1" as="geometry">
            <mxPoint x="1430" y="190" as="sourcePoint" />
            <mxPoint x="1280" y="160" as="targetPoint" />
          </mxGeometry>
        </mxCell>
        <mxCell id="WDB6JOf-iWaTPl9ExDCZ-32" value="" style="rounded=0;whiteSpace=wrap;html=1;strokeColor=none;fillColor=#808080;fontColor=#333333;opacity=80;sketch=1;curveFitting=1;jiggle=2;" vertex="1" parent="1">
          <mxGeometry x="940" y="65" width="720" height="105" as="geometry" />
        </mxCell>
      </root>
    </mxGraphModel>
  </diagram>
</mxfile>
